#!OML:ASF I:\Actors\actors\Patient Classification 2\Patient 1\Session 1\actor1.ASF
:FULLY-SPECIFIED
:DEGREES
470
root -0.592582 18.7555 5.96054 3.69127 -2.39901 -4.78281
lowerback 6.6994 0.808449 0.426612
upperback 1.11851 1.15029 1.56001
thorax -2.62547 0.573917 1.26588
lowerneck -11.6924 -3.31179 -1.01677
upperneck 36.5372 -5.09866 0.999285
head 14.6067 -2.20548 -0.204298
rclavicle -1.38404e-014 3.77691e-015
rhumerus -16.7372 39.3058 -74.424
rradius 111.06
rwrist -9.40856
rhand -19.4462 -29.5796
rfingers 7.12502
rthumb 6.87446 -419.448
lclavicle -1.38404e-014 3.77691e-015
lhumerus -8.26081 -42.1912 73.068
lradius 104.224
lwrist 25.5323
lhand -13.7742 -40.8437
lfingers 7.12502
lthumb 12.3468 -11.2283
rfemur 0 0 0
rtibia 0
rfoot 0 0
rtoes 0
lfemur -7.17707 -4.46144 -9.33422
ltibia 23.6745
lfoot -23.0837 13.0673
ltoes -55.5096
471
root -0.593873 18.7559 5.95612 3.67125 -2.32556 -4.80852
lowerback 6.80497 0.840126 0.3579
upperback 1.13078 1.18987 1.60002
thorax -2.67477 0.594365 1.34087
lowerneck -11.7764 -3.28509 -1.0011
upperneck 36.5117 -5.07243 1.03438
head 14.6144 -2.18575 -0.189933
rclavicle 1.03865e-014 -1.31198e-014
rhumerus -16.8939 39.4831 -74.6613
rradius 110.659
rwrist -9.50323
rhand -19.4435 -29.2627
rfingers 7.12502
rthumb 6.87707 -419.131
lclavicle 1.03865e-014 -1.31198e-014
lhumerus -8.53862 -42.1211 73.2595
lradius 103.982
lwrist 25.8064
lhand -13.8021 -40.9132
lfingers 7.12502
lthumb 12.3199 -11.2962
rfemur 0 0 0
rtibia 0
rfoot 0 0
rtoes 0
lfemur -7.19503 -4.46922 -9.28603
ltibia 23.6671
lfoot -23.0727 12.9859
ltoes -55.5348
472
root -0.594515 18.7573 5.94986 3.66082 -2.22962 -4.81193
lowerback 6.96216 0.835566 0.341928
upperback 1.10558 1.18422 1.5721
thorax -2.78811 0.591717 1.31924
lowerneck -11.8235 -3.21582 -0.98511
upperneck 36.5004 -5.02179 1.1716
head 14.6241 -2.1426 -0.129294
rclavicle -1.9133e-015 -1.07344e-014
rhumerus -17.1535 39.6172 -75.1116
rradius 110.249
rwrist -9.43253
rhand -19.2553 -28.8946
rfingers 7.12502
rthumb 7.05872 -418.757
lclavicle -1.9133e-015 -1.07344e-014
lhumerus -8.78488 -42.0847 73.3865
lradius 103.614
lwrist 25.776
lhand -13.7593 -41.1933
lfingers 7.12502
lthumb 12.3612 -11.5787
rfemur 0 0 0
rtibia 0
rfoot 0 0
rtoes 0
lfemur -7.24515 -4.44215 -9.26418
ltibia 23.6829
lfoot -22.9739 12.9297
ltoes -55.6608
473
root -0.594089 18.7581 5.94439 3.66931 -2.14677 -4.8033
lowerback 7.12238 0.870869 0.389032
upperback 1.0657 1.23566 1.51501
thorax -2.91753 0.616717 1.22648
lowerneck -11.9334 -3.20077 -0.961469
upperneck 36.5473 -5.03027 1.24049
head 14.6737 -2.13081 -0.109021
rclavicle -1.2921e-014 -1.23246e-014
rhumerus -17.4687 39.5984 -75.5488
rradius 109.83
rwrist -9.17664
rhand -19.1759 -28.5899
rfingers 7.12502
rthumb 7.13536 -418.45
lclavicle -1.2921e-014 -1.23246e-014
lhumerus -9.00036 -42.1738 73.5827
lradius 103.181
lwrist 25.592
lhand -13.8447 -41.435
lfingers 7.12502
lthumb 12.2789 -11.8155
rfemur 0 0 0
rtibia 0
rfoot 0 0
rtoes 0
lfemur -7.31301 -4.42097 -9.26089
ltibia 23.7104
lfoot -22.8865 12.8767
ltoes -55.6809
474
root -0.593861 18.758 5.94131 3.66907 -2.09615 -4.83149
lowerback 7.22982 0.960119 0.458989
upperback 1.07123 1.36083 1.50666
thorax -2.97237 0.678145 1.1649
lowerneck -12.1419 -3.25178 -1.03673
upperneck 36.6303 -5.11048 1.31047
head 14.7683 -2.16046 -0.0844993
rclavicle -2.13694e-015 6.16232e-015
rhumerus -17.7961 39.4825 -75.8197
rradius 109.49
rwrist -9.00627
rhand -19.4048 -28.3922
rfingers 7.12502
rthumb 6.91437 -418.259
lclavicle -2.13694e-015 6.16232e-015
lhumerus -9.13066 -42.3548 73.8505
lradius 102.741
lwrist 25.4737
lhand -13.898 -41.684
lfingers 7.12502
lthumb 12.2275 -12.0614
rfemur 0 0 0
rtibia 0
rfoot 0 0
rtoes 0
lfemur -7.35598 -4.40684 -9.22129
ltibia 23.7379
lfoot -22.8764 12.8049
ltoes -55.6272
475
root -0.59494 18.7579 5.93868 3.65254 -2.06155 -4.85845
lowerback 7.3098 1.02983 0.455526
upperback 1.09475 1.45407 1.51034
thorax -2.99455 0.724485 1.16041
lowerneck -12.3336 -3.26945 -1.09035
upperneck 36.7143 -5.15921 1.41036
head 14.8599 -2.17017 -0.0461137
rclavicle -1.963e-015 -1.98785e-015
rhumerus -18.1235 39.4351 -76.1105
rradius 109.215
rwrist -9.02243
rhand -19.6185 -28.2429
rfingers 7.12502
rthumb 6.70808 -418.117
lclavicle -1.963e-015 -1.98785e-015
lhumerus -9.25016 -42.5182 74.0569
lradius 102.337
lwrist 25.4358
lhand -13.9475 -41.951
lfingers 7.12502
lthumb 12.1797 -12.3256
rfemur 0 0 0
rtibia 0
rfoot 0 0
rtoes 0
lfemur -7.37444 -4.39578 -9.18089
ltibia 23.763
lfoot -22.8687 12.7518
ltoes -55.5975
476
root -0.596302 18.7578 5.93574 3.64161 -2.03951 -4.8489
lowerback 7.38677 1.06948 0.383455
upperback 1.09249 1.50151 1.49041
thorax -3.042 0.748733 1.17423
lowerneck -12.4046 -3.25178 -1.07798
upperneck 36.7267 -5.16647 1.49473
head 14.8856 -2.15842 -0.0159757
rclavicle 1.41634e-015 -7.7526e-015
rhumerus -18.4231 39.4422 -76.4701
rradius 108.886
rwrist -9.0224
rhand -19.6484 -28.1226
rfingers 7.12502
rthumb 6.67921 -417.997
lclavicle 1.41634e-015 -7.7526e-015
lhumerus -9.48814 -42.586 74.3228
lradius 101.996
lwrist 25.3442
lhand -13.9883 -42.1234
lfingers 7.12502
lthumb 12.1404 -12.4956
rfemur 0 0 0
rtibia 0
rfoot 0 0
rtoes 0
lfemur -7.39182 -4.40473 -9.18361
ltibia 23.7839
lfoot -22.8541 12.7389
ltoes -55.6071
477
root -0.597106 18.7577 5.93284 3.63857 -1.99676 -4.84956
lowerback 7.4559 1.08602 0.348213
upperback 1.09821 1.52068 1.46811
thorax -3.07532 0.758509 1.16788
lowerneck -12.4821 -3.21771 -1.03445
upperneck 36.704 -5.13549 1.52221
head 14.8918 -2.1344 -0.00861821
rclavicle -8.82107e-015 -1.27222e-014
rhumerus -18.6275 39.4174 -76.7763
rradius 108.488
rwrist -8.90412
rhand -19.5096 -27.7627
rfingers 7.12502
rthumb 6.81325 -417.633
lclavicle -8.82107e-015 -1.27222e-014
lhumerus -9.67211 -42.5997 74.6101
lradius 101.609
lwrist 25.1601
lhand -13.9374 -42.2909
lfingers 7.12502
lthumb 12.1895 -12.6661
rfemur 0 0 0
rtibia 0
rfoot 0 0
rtoes 0
lfemur -7.414 -4.42188 -9.17349
ltibia 23.7959
lfoot -22.8273 12.699
ltoes -55.6528
478
root -0.597774 18.7584 5.92915 3.65035 -1.91796 -4.8517
lowerback 7.4823 1.08895 0.29134
upperback 1.13392 1.5201 1.47817
thorax -3.05488 0.758794 1.21015
lowerneck -12.6328 -3.19403 -0.959963
upperneck 36.7036 -5.08907 1.43979
head 14.92 -2.11315 -0.0514303
rclavicle -3.03147e-015 8.15017e-015
rhumerus -18.7133 39.3998 -76.9454
rradius 108.071
rwrist -8.80628
rhand -19.5368 -27.2178
rfingers 7.12502
rthumb 6.78693 -417.089
lclavicle -3.03147e-015 8.15017e-015
lhumerus -9.73617 -42.6474 74.8531
lradius 101.107
lwrist 24.825
lhand -13.8645 -42.7736
lfingers 7.12502
lthumb 12.2597 -13.153
rfemur 0 0 0
rtibia 0
rfoot 0 0
rtoes 0
lfemur -7.46948 -4.39665 -9.15149
ltibia 23.8015
lfoot -22.7523 12.6272
ltoes -55.6894
479
root -0.598774 18.7598 5.92516 3.66623 -1.85794 -4.84051
lowerback 7.45042 1.10811 0.130062
upperback 1.19141 1.53351 1.53914
thorax -2.98387 0.76726 1.36353
lowerneck -12.747 -3.21358 -0.959135
upperneck 36.6531 -5.08744 1.36579
head 14.9192 -2.1211 -0.0839405
rclavicle -2.08475e-014 5.96354e-015
rhumerus -18.7743 39.4324 -77.0393
rradius 107.656
rwrist -8.69992
rhand -19.8207 -26.9938
rfingers 7.12502
rthumb 6.51288 -416.874
lclavicle -2.08475e-014 5.96354e-015
lhumerus -9.8309 -42.6503 75.1771
lradius 100.566
lwrist 24.3911
lhand -13.6649 -43.4385
lfingers 7.12502
lthumb 12.4522 -13.8295
rfemur 0 0 0
rtibia 0
rfoot 0 0
rtoes 0
lfemur -7.53307 -4.34835 -9.14583
ltibia 23.8067
lfoot -22.676 12.5737
ltoes -55.7066
480
root -0.599505 18.7602 5.92213 3.6687 -1.8246 -4.84067
lowerback 7.48078 1.1018 0.102339
upperback 1.18922 1.52132 1.4819
thorax -3.00191 0.761249 1.32062
lowerneck -12.7586 -3.20516 -0.903279
upperneck 36.631 -5.12236 1.45117
head 14.9136 -2.11707 -0.0641647
rclavicle -2.32578e-014 -1.59028e-014
rhumerus -19.0086 39.4558 -77.4902
rradius 107.231
rwrist -8.54895
rhand -19.8565 -26.9887
rfingers 7.12502
rthumb 6.47836 -416.87
lclavicle -2.32578e-014 -1.59028e-014
lhumerus -10.0564 -42.6472 75.3701
lradius 100.101
lwrist 24.1397
lhand -13.4667 -43.83
lfingers 7.12502
lthumb 12.6432 -14.2327
rfemur 0 0 0
rtibia 0
rfoot 0 0
rtoes 0
lfemur -7.5647 -4.39036 -9.14235
ltibia 23.8176
lfoot -22.6867 12.5645
ltoes -55.7126
481
root -0.600029 18.7599 5.91924 3.66192 -1.78886 -4.8395
lowerback 7.51431 1.08335 0.0604988
upperback 1.18775 1.49177 1.42231
thorax -3.02089 0.746741 1.28492
lowerneck -12.8043 -3.17104 -0.832328
upperneck 36.6791 -5.1366 1.56241
head 14.95 -2.09727 -0.0341588
rclavicle 2.10215e-014 6.16232e-015
rhumerus -19.1875 39.4925 -77.9055
rradius 106.797
rwrist -8.51199
rhand -19.7262 -26.7205
rfingers 7.12502
rthumb 6.60411 -416.597
lclavicle 2.10215e-014 6.16232e-015
lhumerus -10.2351 -42.6177 75.5316
lradius 99.6896
lwrist 23.9965
lhand -13.3993 -44.1725
lfingers 7.12502
lthumb 12.7082 -14.5791
rfemur 0 0 0
rtibia 0
rfoot 0 0
rtoes 0
lfemur -7.58218 -4.47178 -9.1434
ltibia 23.8374
lfoot -22.7306 12.5585
ltoes -55.6838
482
root -0.600585 18.76 5.91523 3.67012 -1.75238 -4.86376
lowerback 7.55856 1.08086 0.0598148
upperback 1.20075 1.4879 1.40247
thorax -3.03152 0.744687 1.26453
lowerneck -12.9091 -3.14389 -0.776072
upperneck 36.7046 -5.11789 1.5746
head 14.985 -2.07803 -0.0382501
rclavicle -1.2921e-015 -9.93923e-015
rhumerus -19.2941 39.4911 -78.1668
rradius 106.347
rwrist -8.39294
rhand -19.8105 -26.197
rfingers 7.12502
rthumb 6.52275 -416.077
lclavicle -1.2921e-015 -9.93923e-015
lhumerus -10.3588 -42.5961 75.7679
lradius 99.2799
lwrist 23.821
lhand -13.4198 -44.5822
lfingers 7.12502
lthumb 12.6885 -14.9877
rfemur 0 0 0
rtibia 0
rfoot 0 0
rtoes 0
lfemur -7.62791 -4.50306 -9.1083
ltibia 23.864
lfoot -22.7105 12.5558
ltoes -55.6621
